<svg width="16" height="25" viewBox="0 0 16 25" fill="none" xmlns="http://www.w3.org/2000/svg">
<path d="M5.34233 17.1591V16.8636C5.34991 15.4924 5.47869 14.4015 5.72869 13.5909C5.98627 12.7803 6.34991 12.1288 6.8196 11.6364C7.2893 11.1364 7.86127 10.678 8.53551 10.2614C8.99763 9.97348 9.41051 9.65909 9.77415 9.31818C10.1454 8.9697 10.437 8.58333 10.6491 8.15909C10.8613 7.72727 10.9673 7.24621 10.9673 6.71591C10.9673 6.11742 10.8272 5.59848 10.5469 5.15909C10.2666 4.7197 9.88778 4.37879 9.41051 4.13636C8.94081 3.89394 8.4143 3.77273 7.83097 3.77273C7.29309 3.77273 6.78172 3.89015 6.29688 4.125C5.8196 4.35227 5.42188 4.70076 5.10369 5.17045C4.79309 5.63258 4.61884 6.2197 4.58097 6.93182H0.535511C0.57339 5.49242 0.921875 4.28788 1.58097 3.31818C2.24763 2.34848 3.12642 1.62121 4.21733 1.13636C5.31581 0.651514 6.52794 0.40909 7.85369 0.40909C9.30066 0.40909 10.5734 0.662878 11.6719 1.17045C12.7779 1.67803 13.6378 2.40151 14.2514 3.34091C14.8726 4.27273 15.1832 5.37879 15.1832 6.65909C15.1832 7.52273 15.0431 8.29545 14.7628 8.97727C14.4901 9.65909 14.0999 10.2652 13.5923 10.7955C13.0848 11.3258 12.4825 11.7992 11.7855 12.2159C11.1719 12.5947 10.6681 12.9886 10.2741 13.3977C9.88778 13.8068 9.59991 14.2879 9.41051 14.8409C9.22869 15.3864 9.134 16.0606 9.12642 16.8636V17.1591H5.34233ZM7.3196 24.25C6.63778 24.25 6.05066 24.0076 5.55824 23.5227C5.06581 23.0379 4.8196 22.447 4.8196 21.75C4.8196 21.0682 5.06581 20.4848 5.55824 20C6.05066 19.5152 6.63778 19.2727 7.3196 19.2727C7.99384 19.2727 8.57718 19.5152 9.0696 20C9.5696 20.4848 9.8196 21.0682 9.8196 21.75C9.8196 22.2121 9.70218 22.6326 9.46733 23.0114C9.24006 23.3902 8.93703 23.6932 8.55824 23.9205C8.18703 24.1402 7.77415 24.25 7.3196 24.25Z" fill="white"/>
</svg>
